<?xml version="1.0" encoding="utf-8"?>
<!-- Generator: Adobe Illustrator 22.1.0, SVG Export Plug-In . SVG Version: 6.00 Build 0)  -->
<svg version="1.1" id="Layer_1" xmlns="http://www.w3.org/2000/svg" xmlns:xlink="http://www.w3.org/1999/xlink" x="0px" y="0px"
	 viewBox="0 0 560.3 74.7" style="enable-background:new 0 0 560.3 74.7;" xml:space="preserve">
<style type="text/css">
	.st0{fill:#8DC63F;}
</style>
<path d="M51.6,28.3H23.9c-3.6,0-5.6-2.7-5.7-5.4c-0.1-2.7,2-5.4,6.6-5.4h47V0H26C12.1,0,0,7.6,0,23c0,14.2,12.1,23.2,21.7,23.2h28.4
	c3.8,0,5.7,2.3,5.8,5c0.1,2.6-1.7,5.3-5.4,5.3H1.8v18.1H50c13.5,0,24.1-10.1,24.1-23.1C74.3,39.3,64.4,28.3,51.6,28.3z"/>
<polygon points="116.7,32 98.3,0 78.2,0 107.9,51.7 107.9,74.6 125.7,74.6 125.7,51.7 154.7,0 134.6,0 "/>
<polygon class="st0" points="162.2,39.6 162.2,74.6 197.2,74.6 "/>
<path d="M198.2,0h-35.9l-0.1,30.7l17.6,17.6V17.5h15.9c7.3,0,13.8,1.7,18.1,5.9c3,2.9,5,7.3,5,12.8c0.1,11.9-8.4,20-20,20.1h-11
	l17.4,17.4c17.9-3.6,31.3-17.8,31.3-37.2c0-9.8-4-19.2-11.1-26C218.9,4,209.8,0,198.2,0z"/>
<path d="M276.5,50.7L256.2,0h-18.5l30.1,74.6H285L317,0h-18.3C291.5,16.7,283.8,33.9,276.5,50.7z"/>
<polygon points="325.4,74.6 392.2,74.6 392.2,56.9 343.1,56.9 343.1,45.5 377.2,45.5 377.2,28 343.1,28 343.1,18 392.2,18 392.2,0 
	325.4,0 "/>
<path d="M454.1,28.3h-27.6c-3.6,0-5.6-2.7-5.7-5.4c-0.1-2.7,2-5.4,6.6-5.4h47V0h-45.9c-14,0-26,7.6-26,23
	c0,14.2,12.1,23.2,21.7,23.2h28.4c3.8,0,5.7,2.3,5.8,5c0.1,2.6-1.7,5.3-5.4,5.3h-48.7v18.1h48.2c13.5,0,24.1-10.1,24.1-23.1
	C476.8,39.3,466.9,28.3,454.1,28.3z"/>
<polygon points="485.5,0 485.5,17.3 514.1,17.3 514.1,74.7 531.7,74.7 531.7,17.3 560.3,17.3 560.3,0 "/>
</svg>
